# xmcd
#
# Track frame offsets: 
#        150
#        10674
#        23584
#        43048
#        57092
#        67030
#        83863
#        98791
#        111427
#        122631
#        132506
#        145186
#        157897
#        169333
#        184742
#        195994
#        208991
#        221353
#        234779
#        253388
#
# Disc length: 3594 seconds
#
# Revision: 0
# Processed by: cddbd v1.5.2PL0 Copyright (c) Steve Scherf et al.
# Submitted via: ExactAudioCopy v0.95a4
#
DISCID=180e0814
DTITLE=Various Artist - Country plne emoci
DYEAR=2010
DGENRE=Country
TTITLE0=Roger Miller/Release Me
TTITLE1=Charlie Rich/The Most Beautiful Girl
TTITLE2=Kenny Rogers/She Believes In Me
TTITLE3=Lynn Anderson/Cry
TTITLE4=Brent Anderson/He'll Have To Go
TTITLE5=Kenny Rogers/Stardurst
TTITLE6=John Denver/For You
TTITLE7=Bobby Sykes/I Love You So Much It Hurts
TTITLE8=Gene Martin/Miss The Mississippi And You
TTITLE9=Hank Locklin/Please Hepl Me I'm Falling
TTITLE10=Roger Miller/The Last World In Lonesome Is Me
TTITLE11=Merle Haggard/The Emptiest Arms In The World
TTITLE12=Brenda Lee/Losing You
TTITLE13=Roy Clark/Somewhere Between Love And Tomorrow
TTITLE14=Ray Price/Crazy Arms
TTITLE15=Billie Rose/Jealous Heart
TTITLE16=Brenda Lee/Emotions
TTITLE17=Mickey Gilley/True Love Ways
TTITLE18=John Denver/Tenderly Calling
TTITLE19=Brenda Lee/You Can Depend On Me
EXTD=
EXTT0=
EXTT1=
EXTT2=
EXTT3=
EXTT4=
EXTT5=
EXTT6=
EXTT7=
EXTT8=
EXTT9=
EXTT10=
EXTT11=
EXTT12=
EXTT13=
EXTT14=
EXTT15=
EXTT16=
EXTT17=
EXTT18=
EXTT19=
PLAYORDER=
